<svg xmlns="http://www.w3.org/2000/svg" xmlns:svg="http://www.w3.org/2000/svg" id="svg2" width="16" height="16" version="1.1"><metadata id="metadata7"/><g id="layer1-0" transform="matrix(0.14893617,0,0,0.14893612,-1.3085106,-139.42623)" style="fill:#333"><path style="fill:#333;fill-opacity:1;stroke:none" id="path2988" d="m 62.5,941.65625 c -26.619463,0 -48.21875,21.59929 -48.21875,48.21875 0,26.6194 21.599284,48.2188 48.21875,48.2188 26.619463,0 48.21875,-21.5994 48.21875,-48.2188 0,-26.61946 -21.59929,-48.21875 -48.21875,-48.21875 z M 62.5,948 c 19.021624,0 35.022539,12.70843 40.125,30.0625 -4.308653,8.73234 -10.358511,16.59463 -17.71875,22.9687 -3.595722,3.1139 -7.480475,5.8569 -11.75,7.7813 -4.263721,1.9217 -8.937458,3.0134 -13.53125,2.75 -2.687368,-0.1541 -5.280516,-0.9192 -7.75,-1.9687 7.692124,-4.4787 14.683662,-10.16157 20.46875,-16.93755 4.153488,-4.86493 7.840365,-10.44727 9.28125,-16.875 0.721447,-3.21835 0.839632,-6.60277 0.15625,-9.875 -0.684858,-3.27929 -2.171771,-6.42955 -4.5,-8.90625 -2.272951,-2.41791 -5.244087,-4.09634 -8.40625,-4.96875 -3.158343,-0.87133 -6.495795,-0.95829 -9.6875,-0.375 -6.36863,1.16387 -11.95157,4.82385 -16.40625,9.3125 -7.857155,7.91708 -12.742584,19.09632 -11.84375,30.3125 0.449219,5.60566 2.328166,11.11665 5.5625,15.74995 0.366258,0.5246 0.788781,0.981 1.1875,1.4688 -3.654869,1.1771 -7.391172,2.0704 -11.1875,2.625 -3.699241,-6.2411 -5.875,-13.46707 -5.875,-21.25 C 20.625,966.74317 39.368169,948 62.5,948 z m 0.28125,8.6875 c 2.781469,0.004 5.571682,0.85436 7.75,2.5 1.959672,1.48046 3.438658,3.63138 4.28125,6 0.843811,2.37203 1.07418,4.98637 0.78125,7.53125 -0.587418,5.10325 -3.178807,9.88276 -6.40625,14.125 -5.724423,7.52432 -13.349314,13.58085 -21.84375,17.81245 -0.607169,0.3025 -1.245414,0.59 -1.875,0.875 -1.543994,-1.4452 -2.903523,-3.0443 -3.9375,-4.875 -2.422725,-4.28951 -3.259135,-9.45169 -2.78125,-14.43745 0.479009,-4.9975 2.216646,-9.89557 4.5625,-14.4375 2.715962,-5.25851 6.382048,-10.15241 11.375,-12.90625 2.492067,-1.3745 5.304959,-2.19128 8.09375,-2.1875 z M 104.25,988.125 c 0.0273,0.5861 0.125,1.16157 0.125,1.75 0,23.1319 -18.742094,41.8438 -41.875,41.8438 -12.267383,0 -23.187568,-5.3832 -30.84375,-13.7813 4.004019,-1.0272 7.926226,-2.3273 11.71875,-3.9687 1.933198,1.3913 4.025379,2.5846 6.25,3.4374 7.087206,2.7172 15.053718,2.2917 22.125,-0.1562 7.058592,-2.4437 13.250984,-6.7887 18.625,-11.8125 5.425036,-5.0713 10.06612,-10.94086 13.875,-17.3125 z" transform="matrix(1.1139709,0,0,1.1139709,-7.1231814,-112.82981)"/></g></svg>