<svg xmlns="http://www.w3.org/2000/svg" xmlns:svg="http://www.w3.org/2000/svg" xmlns:xlink="http://www.w3.org/1999/xlink" id="svg2" width="360" height="360" version="1.1"><metadata id="metadata10"/><defs id="defs8"><linearGradient id="linearGradient837"><stop style="stop-color:#c6262e;stop-opacity:1" id="stop833" offset="0"/><stop style="stop-color:#ed5353;stop-opacity:1" id="stop835" offset="1"/></linearGradient><clipPath id="highcharts-13"><rect id="rect9" width="580" height="338" x="0" y="0"/></clipPath><linearGradient id="linearGradient839" x1="-197.828" x2="55.846" y1="310.325" y2="56.65" gradientUnits="userSpaceOnUse" xlink:href="#linearGradient837"/><clipPath id="highcharts-13-5"><rect id="rect9-9" width="580" height="338" x="0" y="0"/></clipPath><clipPath id="highcharts-13-3"><rect id="rect9-6" width="580" height="338" x="0" y="0"/></clipPath><filter style="color-interpolation-filters:sRGB" id="filter4288-7" width="1.024" height="1.024" x="-.012" y="-.012"><feGaussianBlur id="feGaussianBlur4290-4" result="fbSourceGraphic" stdDeviation="1.339"/><feColorMatrix id="feColorMatrix33891" in="fbSourceGraphic" result="fbSourceGraphicAlpha" values="0 0 0 -1 0 0 0 0 -1 0 0 0 0 -1 0 0 0 0 1 0"/><feColorMatrix id="feColorMatrix33893" in="fbSourceGraphic" result="fbSourceGraphic" values="1 0 0 -0.15 -0 0 1 0 -0.15 -0 0 0 1 -0.15 -0 0 0 0 1 0"/><feColorMatrix id="feColorMatrix34495" in="fbSourceGraphic" result="fbSourceGraphicAlpha" values="0 0 0 -1 0 0 0 0 -1 0 0 0 0 -1 0 0 0 0 1 0"/><feColorMatrix id="feColorMatrix34497" in="fbSourceGraphic" result="color1" type="hueRotate" values="342"/><feColorMatrix id="feColorMatrix34499" result="fbSourceGraphic" type="saturate" values="1"/><feColorMatrix id="feColorMatrix34609" in="fbSourceGraphic" result="fbSourceGraphicAlpha" values="0 0 0 -1 0 0 0 0 -1 0 0 0 0 -1 0 0 0 0 1 0"/><feColorMatrix id="feColorMatrix34611" in="fbSourceGraphic" values="1 0 0 -0.12 -0 0 1 0 -0.12 -0 0 0 1 -0.12 -0 0 0 0 1 0"/></filter><filter style="color-interpolation-filters:sRGB" id="filter4298-5" width="1.12" height="1.12" x="-.06" y="-.06"><feGaussianBlur id="feGaussianBlur4300-2" result="fbSourceGraphic" stdDeviation="6.696"/><feColorMatrix id="feColorMatrix34161" in="fbSourceGraphic" result="fbSourceGraphicAlpha" values="0 0 0 -1 0 0 0 0 -1 0 0 0 0 -1 0 0 0 0 1 0"/><feColorMatrix id="feColorMatrix34163" in="fbSourceGraphic" result="fbSourceGraphic" values="1 0 0 -0.12 -0 0 1 0 -0.12 -0 0 0 1 -0.12 -0 0 0 0 1 0"/><feColorMatrix id="feColorMatrix34631" in="fbSourceGraphic" result="fbSourceGraphicAlpha" values="0 0 0 -1 0 0 0 0 -1 0 0 0 0 -1 0 0 0 0 1 0"/><feColorMatrix id="feColorMatrix34633" in="fbSourceGraphic" result="color1" type="hueRotate" values="343"/><feColorMatrix id="feColorMatrix34635" result="fbSourceGraphic" type="saturate" values="1"/><feColorMatrix id="feColorMatrix34655" in="fbSourceGraphic" result="fbSourceGraphicAlpha" values="0 0 0 -1 0 0 0 0 -1 0 0 0 0 -1 0 0 0 0 1 0"/><feColorMatrix id="feColorMatrix34657" in="fbSourceGraphic" values="1 0 0 -0.4681 -0 0 1 0 -0.4681 -0 0 0 1 -0.4681 -0 0 0 0 1 0"/></filter><meshgradient id="meshgradient33658" x="35.515" y="136.882" gradientUnits="userSpaceOnUse" type="bicubic"><meshrow id="meshrow33678"><meshpatch id="meshpatch33668"><stop id="stop33660" path="c 4.4454,-33.9813 73.531,-86.6115 108.432,-87.4886" style="stop-color:#ffe16b;stop-opacity:1"/><stop id="stop33662" path="c -73.6461,118.221 -2.53564,119.325 2.13796,142.518" style="stop-color:#d8de5f;stop-opacity:1"/><stop id="stop33664" path="c -26.2763,17.7896 -22.3374,8.8823 -88.1592,103.113" style="stop-color:#ffa154;stop-opacity:1"/><stop id="stop33666" path="c -12.0294,-18.7437 -50.571,-72.5036 -22.4108,-158.142" style="stop-color:#ed5353;stop-opacity:.94901961"/></meshpatch><meshpatch id="meshpatch33676"><stop id="stop33670" path="c 17.9348,-4.23995 26.3839,-10.2398 69.7856,-3.84429"/><stop id="stop33672" path="c 83.8004,29.7515 100.175,88.4262 100.175,132.378" style="stop-color:#9bdb4d;stop-opacity:1"/><stop id="stop33674" path="c -138.084,55.5336 -127.566,-30.3331 -167.823,13.9843" style="stop-color:#5db3fb;stop-opacity:1"/></meshpatch></meshrow><meshrow id="meshrow33694"><meshpatch id="meshpatch33686"><stop id="stop33680" path="c -7.66237,72.1989 2.3008,74.0306 11.3139,138.779"/><stop id="stop33682" path="c -18.7286,2.16456 -50.0627,8.3838 -63.1741,1.97484" style="stop-color:#e49688;stop-opacity:1"/><stop id="stop33684" path="c -36.9983,-18.331 -36.2978,7.687 -36.299,-37.6408" style="stop-color:#ffa154;stop-opacity:1"/></meshpatch><meshpatch id="meshpatch33692"><stop id="stop33688" path="c 5.68434e-14,45.3313 4,25.6626 -12,94.994"/><stop id="stop33690" path="c -45.7952,34.527 -114.393,54.2932 -144.509,57.7693" style="stop-color:#bb86dc;stop-opacity:1"/></meshpatch></meshrow></meshgradient><meshgradient id="meshgradient34501" x="35.515" y="136.882" gradientUnits="userSpaceOnUse" type="bicubic"><meshrow id="meshrow34521"><meshpatch id="meshpatch34511"><stop style="stop-color:#ffe16b;stop-opacity:1" id="stop34503" path="c 4.4454,-33.9813 73.531,-86.6115 108.432,-87.4886"/><stop style="stop-color:#d8de5f;stop-opacity:1" id="stop34505" path="c -73.6461,118.221 -2.53564,119.325 2.13796,142.518"/><stop style="stop-color:#ffa154;stop-opacity:1" id="stop34507" path="c -26.2763,17.7896 -22.3374,8.8823 -88.1592,103.113"/><stop style="stop-color:#ed5353;stop-opacity:.94901961" id="stop34509" path="c -12.0294,-18.7437 -50.571,-72.5036 -22.4108,-158.142"/></meshpatch><meshpatch id="meshpatch34519"><stop id="stop34513" path="c 17.9348,-4.23995 26.3839,-10.2398 69.7856,-3.84429"/><stop style="stop-color:#9bdb4d;stop-opacity:1" id="stop34515" path="c 83.8004,29.7515 100.175,88.4262 100.175,132.378"/><stop style="stop-color:#5db3fb;stop-opacity:1" id="stop34517" path="c -138.084,55.5336 -127.566,-30.3331 -167.823,13.9843"/></meshpatch></meshrow><meshrow id="meshrow34537"><meshpatch id="meshpatch34529"><stop id="stop34523" path="c -7.66237,72.1989 2.3008,74.0306 11.3139,138.779"/><stop style="stop-color:#e49688;stop-opacity:1" id="stop34525" path="c -18.7286,2.16456 -50.0627,8.3838 -63.1741,1.97484"/><stop style="stop-color:#ffa154;stop-opacity:1" id="stop34527" path="c -36.9983,-18.331 -36.2978,7.687 -36.299,-37.6408"/></meshpatch><meshpatch id="meshpatch34535"><stop id="stop34531" path="c 5.68434e-14,45.3313 4,25.6626 -12,94.994"/><stop style="stop-color:#bb86dc;stop-opacity:1" id="stop34533" path="c -45.7952,34.527 -114.393,54.2932 -144.509,57.7693"/></meshpatch></meshrow></meshgradient><meshgradient id="meshgradient34539" x="35.515" y="136.882" gradientUnits="userSpaceOnUse" type="bicubic"><meshrow id="meshrow34559"><meshpatch id="meshpatch34549"><stop style="stop-color:#ffe16b;stop-opacity:1" id="stop34541" path="c 4.4454,-33.9813 73.531,-86.6115 108.432,-87.4886"/><stop style="stop-color:#d8de5f;stop-opacity:1" id="stop34543" path="c -73.6461,118.221 -2.53564,119.325 2.13796,142.518"/><stop style="stop-color:#ffa154;stop-opacity:1" id="stop34545" path="c -26.2763,17.7896 -22.3374,8.8823 -88.1592,103.113"/><stop style="stop-color:#ed5353;stop-opacity:.94901961" id="stop34547" path="c -12.0294,-18.7437 -50.571,-72.5036 -22.4108,-158.142"/></meshpatch><meshpatch id="meshpatch34557"><stop id="stop34551" path="c 17.9348,-4.23995 26.3839,-10.2398 69.7856,-3.84429"/><stop style="stop-color:#9bdb4d;stop-opacity:1" id="stop34553" path="c 83.8004,29.7515 100.175,88.4262 100.175,132.378"/><stop style="stop-color:#5db3fb;stop-opacity:1" id="stop34555" path="c -138.084,55.5336 -127.566,-30.3331 -167.823,13.9843"/></meshpatch></meshrow><meshrow id="meshrow34575"><meshpatch id="meshpatch34567"><stop id="stop34561" path="c -7.66237,72.1989 2.3008,74.0306 11.3139,138.779"/><stop style="stop-color:#e49688;stop-opacity:1" id="stop34563" path="c -18.7286,2.16456 -50.0627,8.3838 -63.1741,1.97484"/><stop style="stop-color:#ffa154;stop-opacity:1" id="stop34565" path="c -36.9983,-18.331 -36.2978,7.687 -36.299,-37.6408"/></meshpatch><meshpatch id="meshpatch34573"><stop id="stop34569" path="c 5.68434e-14,45.3313 4,25.6626 -12,94.994"/><stop style="stop-color:#bb86dc;stop-opacity:1" id="stop34571" path="c -45.7952,34.527 -114.393,54.2932 -144.509,57.7693"/></meshpatch></meshrow></meshgradient></defs><rect style="opacity:1;vector-effect:none;fill:#fff;fill-opacity:1;stroke:none;stroke-width:1;stroke-linecap:butt;stroke-linejoin:miter;stroke-miterlimit:4;stroke-dasharray:none;stroke-dashoffset:0;stroke-opacity:1;marker:none;paint-order:normal" id="rect34678" width="987.121" height="940.452" x="-439.82" y="-154.774"/><path style="opacity:.50199998;vector-effect:none;fill:url(#meshgradient33658);fill-opacity:1;stroke-width:1;stroke-linecap:butt;stroke-linejoin:miter;stroke-miterlimit:4;stroke-dasharray:none;stroke-dashoffset:0;stroke-opacity:1;filter:url(#filter4298-5)" id="path3461-1-5" d="M 180,46.085938 C 106.04162,46.085938 46.085938,106.04162 46.085938,180 46.085938,253.95838 106.04162,313.91406 180,313.91406 253.95838,313.91406 313.91406,253.95838 313.91406,180 313.91406,106.04162 253.95838,46.085938 180,46.085938 Z m 0.0469,11.125 -0.0469,0.0293 c 56.22444,0 103.63057,37.781295 118.16016,89.337886 -12.48263,25.82615 -30.32303,49.06976 -51.98828,67.875 -10.4261,9.02001 -21.80824,17.06591 -34.37696,22.72852 -12.56871,5.66262 -26.39989,8.87615 -40.17383,8.0918 -10.33045,-0.60261 -20.56612,-3.48235 -29.5957,-8.51367 24.00874,-13.00872 45.65453,-30.34111 63.37891,-51.09766 11.66958,-13.63046 21.80873,-29.12608 25.73047,-46.61133 1.98957,-8.74261 2.2959,-17.88708 0.47851,-26.66797 -1.8174,-8.78088 -5.87279,-17.121442 -12.01367,-23.66406 C 213.6022,82.348305 205.73144,77.81479 197.29492,75.5 c -8.41741,-2.324351 -17.40886,-2.506198 -26.01758,-0.9375 -17.21741,3.156531 -32.61922,13.162661 -44.92968,25.58789 -21.74177,21.90438 -35.180727,52.81829 -32.712894,83.58008 1.243475,15.38089 6.389834,30.49343 15.208984,43.13867 1.98,2.83131 4.15201,5.5201 6.4668,8.06445 -12.86524,4.52436 -26.208342,7.72734 -39.695316,9.53516 C 64.012606,225.7209 57.306641,203.62553 57.306641,179.9707 c 0,-67.81749 54.941859,-122.759763 122.740239,-122.759762 z m 0.72851,24.763671 -0.01,0.03906 c 8.64698,0 17.33178,2.621129 24.21876,7.84375 6.19827,4.686971 10.80801,11.325378 13.39062,18.652348 2.61132,7.32696 3.28215,15.27518 2.39258,23.0039 -1.76957,15.44784 -9.56633,29.61478 -18.97852,41.99219 -16.6722,21.90438 -38.83457,39.43701 -63.47461,51.71875 -2.51567,1.24349 -5.06973,2.44787 -7.65234,3.5957 -5.35654,-4.68697 -9.94679,-10.23377 -13.4668,-16.45117 -7.3174,-12.97045 -9.72835,-28.36118 -8.32226,-43.17773 1.43479,-14.82611 6.5046,-29.09746 13.34375,-42.32618 7.92002,-15.33307 18.71896,-29.842909 33.83203,-38.193355 7.55654,-4.180008 16.09871,-6.697266 24.72656,-6.697266 z M 301.65625,163.5918 c 0.71209,5.35583 1.09375,10.814 1.09375,16.36914 0,67.79837 -54.92234,122.76172 -122.7207,122.76172 -38.06964,0 -72.12327,-17.33379 -94.601566,-44.54688 13.888725,-3.15652 27.472146,-7.69896 40.499996,-13.4668 5.71044,4.32349 11.99575,7.88183 18.69141,10.44532 19.25482,7.38435 41.1291,6.31185 60.62305,-0.43164 19.48437,-6.75305 36.77851,-18.84246 51.84375,-32.95118 17.93345,-16.75826 33.05865,-36.51485 44.57031,-58.17968 z" transform="translate(0,5.999999)"/><path style="opacity:1;vector-effect:none;fill:url(#meshgradient34539);fill-opacity:1;stroke-width:1;stroke-linecap:butt;stroke-linejoin:miter;stroke-miterlimit:4;stroke-dasharray:none;stroke-dashoffset:0;stroke-opacity:1;filter:url(#filter4288-7)" id="path3461-3-4" d="M 180,46.085938 C 106.04162,46.085938 46.085938,106.04162 46.085938,180 46.085938,253.95838 106.04162,313.91406 180,313.91406 253.95838,313.91406 313.91406,253.95838 313.91406,180 313.91406,106.04162 253.95838,46.085938 180,46.085938 Z m 0.0469,11.125 -0.0469,0.0293 c 56.22444,0 103.63057,37.781295 118.16016,89.337886 -12.48263,25.82615 -30.32303,49.06976 -51.98828,67.875 -10.4261,9.02001 -21.80824,17.06591 -34.37696,22.72852 -12.56871,5.66262 -26.39989,8.87615 -40.17383,8.0918 -10.33045,-0.60261 -20.56612,-3.48235 -29.5957,-8.51367 24.00874,-13.00872 45.65453,-30.34111 63.37891,-51.09766 11.66958,-13.63046 21.80873,-29.12608 25.73047,-46.61133 1.98957,-8.74261 2.2959,-17.88708 0.47851,-26.66797 -1.8174,-8.78088 -5.87279,-17.121442 -12.01367,-23.66406 C 213.6022,82.348305 205.73144,77.81479 197.29492,75.5 c -8.41741,-2.324351 -17.40886,-2.506198 -26.01758,-0.9375 -17.21741,3.156531 -32.61922,13.162661 -44.92968,25.58789 -21.74177,21.90438 -35.180727,52.81829 -32.712894,83.58008 1.243475,15.38089 6.389834,30.49343 15.208984,43.13867 1.98,2.83131 4.15201,5.5201 6.4668,8.06445 -12.86524,4.52436 -26.208342,7.72734 -39.695316,9.53516 C 64.012606,225.7209 57.306641,203.62553 57.306641,179.9707 c 0,-67.81749 54.941859,-122.759763 122.740239,-122.759762 z m 0.72851,24.763671 -0.01,0.03906 c 8.64698,0 17.33178,2.621129 24.21876,7.84375 6.19827,4.686971 10.80801,11.325378 13.39062,18.652348 2.61132,7.32696 3.28215,15.27518 2.39258,23.0039 -1.76957,15.44784 -9.56633,29.61478 -18.97852,41.99219 -16.6722,21.90438 -38.83457,39.43701 -63.47461,51.71875 -2.51567,1.24349 -5.06973,2.44787 -7.65234,3.5957 -5.35654,-4.68697 -9.94679,-10.23377 -13.4668,-16.45117 -7.3174,-12.97045 -9.72835,-28.36118 -8.32226,-43.17773 1.43479,-14.82611 6.5046,-29.09746 13.34375,-42.32618 7.92002,-15.33307 18.71896,-29.842909 33.83203,-38.193355 7.55654,-4.180008 16.09871,-6.697266 24.72656,-6.697266 z M 301.65625,163.5918 c 0.71209,5.35583 1.09375,10.814 1.09375,16.36914 0,67.79837 -54.92234,122.76172 -122.7207,122.76172 -38.06964,0 -72.12327,-17.33379 -94.601566,-44.54688 13.888725,-3.15652 27.472146,-7.69896 40.499996,-13.4668 5.71044,4.32349 11.99575,7.88183 18.69141,10.44532 19.25482,7.38435 41.1291,6.31185 60.62305,-0.43164 19.48437,-6.75305 36.77851,-18.84246 51.84375,-32.95118 17.93345,-16.75826 33.05865,-36.51485 44.57031,-58.17968 z" transform="translate(-5.4852937e-6,1.999999)"/><path style="fill:url(#meshgradient34501);fill-opacity:1" id="path3461-6-7" d="M 180,46.085938 C 106.04162,46.085938 46.085938,106.04162 46.085938,180 46.085938,253.95838 106.04162,313.91406 180,313.91406 253.95838,313.91406 313.91406,253.95838 313.91406,180 313.91406,106.04162 253.95838,46.085938 180,46.085938 Z m 0.0469,11.125 -0.0469,0.0293 c 56.22444,0 103.63057,37.781295 118.16016,89.337886 -12.48263,25.82615 -30.32303,49.06976 -51.98828,67.875 -10.4261,9.02001 -21.80824,17.06591 -34.37696,22.72852 -12.56871,5.66262 -26.39989,8.87615 -40.17383,8.0918 -10.33045,-0.60261 -20.56612,-3.48235 -29.5957,-8.51367 24.00874,-13.00872 45.65453,-30.34111 63.37891,-51.09766 11.66958,-13.63046 21.80873,-29.12608 25.73047,-46.61133 1.98957,-8.74261 2.2959,-17.88708 0.47851,-26.66797 -1.8174,-8.78088 -5.87279,-17.121442 -12.01367,-23.66406 C 213.6022,82.348305 205.73144,77.81479 197.29492,75.5 c -8.41741,-2.324351 -17.40886,-2.506198 -26.01758,-0.9375 -17.21741,3.156531 -32.61922,13.162661 -44.92968,25.58789 -21.74177,21.90438 -35.180727,52.81829 -32.712894,83.58008 1.243475,15.38089 6.389834,30.49343 15.208984,43.13867 1.98,2.83131 4.15201,5.5201 6.4668,8.06445 -12.86524,4.52436 -26.208342,7.72734 -39.695316,9.53516 C 64.012606,225.7209 57.306641,203.62553 57.306641,179.9707 c 0,-67.81749 54.941859,-122.759763 122.740239,-122.759762 z m 0.72851,24.763671 -0.01,0.03906 c 8.64698,0 17.33178,2.621129 24.21876,7.84375 6.19827,4.686971 10.80801,11.325378 13.39062,18.652348 2.61132,7.32696 3.28215,15.27518 2.39258,23.0039 -1.76957,15.44784 -9.56633,29.61478 -18.97852,41.99219 -16.6722,21.90438 -38.83457,39.43701 -63.47461,51.71875 -2.51567,1.24349 -5.06973,2.44787 -7.65234,3.5957 -5.35654,-4.68697 -9.94679,-10.23377 -13.4668,-16.45117 -7.3174,-12.97045 -9.72835,-28.36118 -8.32226,-43.17773 1.43479,-14.82611 6.5046,-29.09746 13.34375,-42.32618 7.92002,-15.33307 18.71896,-29.842909 33.83203,-38.193355 7.55654,-4.180008 16.09871,-6.697266 24.72656,-6.697266 z M 301.65625,163.5918 c 0.71209,5.35583 1.09375,10.814 1.09375,16.36914 0,67.79837 -54.92234,122.76172 -122.7207,122.76172 -38.06964,0 -72.12327,-17.33379 -94.601566,-44.54688 13.888725,-3.15652 27.472146,-7.69896 40.499996,-13.4668 5.71044,4.32349 11.99575,7.88183 18.69141,10.44532 19.25482,7.38435 41.1291,6.31185 60.62305,-0.43164 19.48437,-6.75305 36.77851,-18.84246 51.84375,-32.95118 17.93345,-16.75826 33.05865,-36.51485 44.57031,-58.17968 z" transform="translate(10e-7,-3.0391855e-6)"/></svg>