<svg xmlns="http://www.w3.org/2000/svg" xmlns:svg="http://www.w3.org/2000/svg" xmlns:xlink="http://www.w3.org/1999/xlink" id="svg2" width="360" height="360" version="1.1"><metadata id="metadata10"/><defs id="defs8"><linearGradient id="linearGradient877"><stop style="stop-color:#904c9b;stop-opacity:1" id="stop873" offset="0"/><stop style="stop-color:#cd9ef7;stop-opacity:1" id="stop875" offset="1"/></linearGradient><linearGradient id="linearGradient869"><stop style="stop-color:#3689e6;stop-opacity:1" id="stop865" offset="0"/><stop style="stop-color:#64baff;stop-opacity:1" id="stop867" offset="1"/></linearGradient><linearGradient id="linearGradient861"><stop style="stop-color:#68b723;stop-opacity:1" id="stop857" offset="0"/><stop style="stop-color:#9bdb4d;stop-opacity:1" id="stop859" offset="1"/></linearGradient><linearGradient id="linearGradient853"><stop style="stop-color:#f9c440;stop-opacity:1" id="stop849" offset="0"/><stop style="stop-color:#ffe16b;stop-opacity:1" id="stop851" offset="1"/></linearGradient><linearGradient id="linearGradient845"><stop style="stop-color:#f37329;stop-opacity:1" id="stop841" offset="0"/><stop style="stop-color:#ffa154;stop-opacity:1" id="stop843" offset="1"/></linearGradient><linearGradient id="linearGradient837"><stop style="stop-color:#c6262e;stop-opacity:1" id="stop833" offset="0"/><stop style="stop-color:#ed5353;stop-opacity:1" id="stop835" offset="1"/></linearGradient><filter style="color-interpolation-filters:sRGB" id="filter4288" width="1.024" height="1.024" x="-.012" y="-.012"><feGaussianBlur id="feGaussianBlur4290" stdDeviation="1.339"/></filter><filter style="color-interpolation-filters:sRGB" id="filter4298" width="1.12" height="1.12" x="-.06" y="-.06"><feGaussianBlur id="feGaussianBlur4300" stdDeviation="6.696"/></filter><clipPath id="highcharts-13"><rect id="rect9" width="580" height="338" x="0" y="0"/></clipPath><linearGradient id="linearGradient839" x1="-197.828" x2="55.846" y1="310.325" y2="56.65" gradientUnits="userSpaceOnUse" xlink:href="#linearGradient837"/><linearGradient id="linearGradient847" x1="-142.189" x2="111.642" y1="366.2" y2="112.369" gradientUnits="userSpaceOnUse" xlink:href="#linearGradient845"/><linearGradient id="linearGradient855" x1="-48.002" x2="206.036" y1="462.687" y2="208.649" gradientUnits="userSpaceOnUse" xlink:href="#linearGradient853"/><linearGradient id="linearGradient863" x1="-45.093" x2="210.036" y1="466.501" y2="211.372" gradientUnits="userSpaceOnUse" xlink:href="#linearGradient861"/><linearGradient id="linearGradient871" x1="-46.184" x2="207.854" y1="463.406" y2="209.368" gradientUnits="userSpaceOnUse" xlink:href="#linearGradient869"/><linearGradient id="linearGradient879" x1="-14.183" x2="240.947" y1="496.312" y2="241.183" gradientUnits="userSpaceOnUse" xlink:href="#linearGradient877"/></defs><g id="g856" transform="matrix(0.93943477,0.04722584,0.04722584,0.93943477,2.4010907,2.4010907)"><rect id="rect3349" width="570.625" height="86" x="-285.313" y="168.558" transform="rotate(-45)" style="color:#bebebe;clip-rule:nonzero;display:inline;overflow:visible;visibility:visible;opacity:1;isolation:auto;mix-blend-mode:normal;color-interpolation:sRGB;color-interpolation-filters:linearRGB;solid-color:#000;solid-opacity:1;fill:url(#linearGradient855);fill-opacity:1;fill-rule:nonzero;stroke:none;stroke-width:1;stroke-linecap:butt;stroke-linejoin:miter;stroke-miterlimit:4;stroke-dasharray:none;stroke-dashoffset:0;stroke-opacity:1;marker:none;color-rendering:auto;image-rendering:auto;shape-rendering:auto;text-rendering:auto;enable-background:accumulate"/><rect id="rect3349-4" width="570.625" height="86" x="-285.313" y="254.558" transform="rotate(-45)" style="color:#bebebe;clip-rule:nonzero;display:inline;overflow:visible;visibility:visible;opacity:1;isolation:auto;mix-blend-mode:normal;color-interpolation:sRGB;color-interpolation-filters:linearRGB;solid-color:#000;solid-opacity:1;fill:url(#linearGradient863);fill-opacity:1;fill-rule:nonzero;stroke:none;stroke-width:1;stroke-linecap:butt;stroke-linejoin:miter;stroke-miterlimit:4;stroke-dasharray:none;stroke-dashoffset:0;stroke-opacity:1;marker:none;color-rendering:auto;image-rendering:auto;shape-rendering:auto;text-rendering:auto;enable-background:accumulate"/><rect id="rect3349-3" width="570.625" height="86" x="-285.313" y="-3.442" transform="rotate(-45)" style="color:#bebebe;clip-rule:nonzero;display:inline;overflow:visible;visibility:visible;opacity:1;isolation:auto;mix-blend-mode:normal;color-interpolation:sRGB;color-interpolation-filters:linearRGB;solid-color:#000;solid-opacity:1;fill:url(#linearGradient839);fill-opacity:1;fill-rule:nonzero;stroke:none;stroke-width:1;stroke-linecap:butt;stroke-linejoin:miter;stroke-miterlimit:4;stroke-dasharray:none;stroke-dashoffset:0;stroke-opacity:1;marker:none;color-rendering:auto;image-rendering:auto;shape-rendering:auto;text-rendering:auto;enable-background:accumulate"/><rect id="rect3349-4-1" width="570.625" height="86" x="-285.313" y="82.558" transform="rotate(-45)" style="color:#bebebe;clip-rule:nonzero;display:inline;overflow:visible;visibility:visible;opacity:1;isolation:auto;mix-blend-mode:normal;color-interpolation:sRGB;color-interpolation-filters:linearRGB;solid-color:#000;solid-opacity:1;fill:url(#linearGradient847);fill-opacity:1;fill-rule:nonzero;stroke:none;stroke-width:1;stroke-linecap:butt;stroke-linejoin:miter;stroke-miterlimit:4;stroke-dasharray:none;stroke-dashoffset:0;stroke-opacity:1;marker:none;color-rendering:auto;image-rendering:auto;shape-rendering:auto;text-rendering:auto;enable-background:accumulate"/><rect id="rect3349-49" width="570.625" height="86" x="-285.313" y="340.558" transform="rotate(-45)" style="color:#bebebe;clip-rule:nonzero;display:inline;overflow:visible;visibility:visible;opacity:1;isolation:auto;mix-blend-mode:normal;color-interpolation:sRGB;color-interpolation-filters:linearRGB;solid-color:#000;solid-opacity:1;fill:url(#linearGradient871);fill-opacity:1;fill-rule:nonzero;stroke:none;stroke-width:1;stroke-linecap:butt;stroke-linejoin:miter;stroke-miterlimit:4;stroke-dasharray:none;stroke-dashoffset:0;stroke-opacity:1;marker:none;color-rendering:auto;image-rendering:auto;shape-rendering:auto;text-rendering:auto;enable-background:accumulate"/><rect id="rect3349-4-5" width="570.625" height="86" x="-285.313" y="426.558" transform="rotate(-45)" style="color:#bebebe;clip-rule:nonzero;display:inline;overflow:visible;visibility:visible;opacity:1;isolation:auto;mix-blend-mode:normal;color-interpolation:sRGB;color-interpolation-filters:linearRGB;solid-color:#000;solid-opacity:1;fill:url(#linearGradient879);fill-opacity:1;fill-rule:nonzero;stroke:none;stroke-width:1;stroke-linecap:butt;stroke-linejoin:miter;stroke-miterlimit:4;stroke-dasharray:none;stroke-dashoffset:0;stroke-opacity:1;marker:none;color-rendering:auto;image-rendering:auto;shape-rendering:auto;text-rendering:auto;enable-background:accumulate"/></g><path style="fill:#000;opacity:.1;filter:url(#filter4298)" id="path3461-1" d="M 180,46.085938 C 106.04162,46.085938 46.085938,106.04162 46.085938,180 46.085938,253.95838 106.04162,313.91406 180,313.91406 253.95838,313.91406 313.91406,253.95838 313.91406,180 313.91406,106.04162 253.95838,46.085938 180,46.085938 Z m 0.0469,11.125 -0.0469,0.0293 c 56.22444,0 103.63057,37.781295 118.16016,89.337886 -12.48263,25.82615 -30.32303,49.06976 -51.98828,67.875 -10.4261,9.02001 -21.80824,17.06591 -34.37696,22.72852 -12.56871,5.66262 -26.39989,8.87615 -40.17383,8.0918 -10.33045,-0.60261 -20.56612,-3.48235 -29.5957,-8.51367 24.00874,-13.00872 45.65453,-30.34111 63.37891,-51.09766 11.66958,-13.63046 21.80873,-29.12608 25.73047,-46.61133 1.98957,-8.74261 2.2959,-17.88708 0.47851,-26.66797 -1.8174,-8.78088 -5.87279,-17.121442 -12.01367,-23.66406 C 213.6022,82.348305 205.73144,77.81479 197.29492,75.5 c -8.41741,-2.324351 -17.40886,-2.506198 -26.01758,-0.9375 -17.21741,3.156531 -32.61922,13.162661 -44.92968,25.58789 -21.74177,21.90438 -35.180727,52.81829 -32.712894,83.58008 1.243475,15.38089 6.389834,30.49343 15.208984,43.13867 1.98,2.83131 4.15201,5.5201 6.4668,8.06445 -12.86524,4.52436 -26.208342,7.72734 -39.695316,9.53516 C 64.012606,225.7209 57.306641,203.62553 57.306641,179.9707 c 0,-67.81749 54.941859,-122.759763 122.740239,-122.759762 z m 0.72851,24.763671 -0.01,0.03906 c 8.64698,0 17.33178,2.621129 24.21876,7.84375 6.19827,4.686971 10.80801,11.325378 13.39062,18.652348 2.61132,7.32696 3.28215,15.27518 2.39258,23.0039 -1.76957,15.44784 -9.56633,29.61478 -18.97852,41.99219 -16.6722,21.90438 -38.83457,39.43701 -63.47461,51.71875 -2.51567,1.24349 -5.06973,2.44787 -7.65234,3.5957 -5.35654,-4.68697 -9.94679,-10.23377 -13.4668,-16.45117 -7.3174,-12.97045 -9.72835,-28.36118 -8.32226,-43.17773 1.43479,-14.82611 6.5046,-29.09746 13.34375,-42.32618 7.92002,-15.33307 18.71896,-29.842909 33.83203,-38.193355 7.55654,-4.180008 16.09871,-6.697266 24.72656,-6.697266 z M 301.65625,163.5918 c 0.71209,5.35583 1.09375,10.814 1.09375,16.36914 0,67.79837 -54.92234,122.76172 -122.7207,122.76172 -38.06964,0 -72.12327,-17.33379 -94.601566,-44.54688 13.888725,-3.15652 27.472146,-7.69896 40.499996,-13.4668 5.71044,4.32349 11.99575,7.88183 18.69141,10.44532 19.25482,7.38435 41.1291,6.31185 60.62305,-0.43164 19.48437,-6.75305 36.77851,-18.84246 51.84375,-32.95118 17.93345,-16.75826 33.05865,-36.51485 44.57031,-58.17968 z" transform="translate(0,6.000002)"/><path style="fill:#000;opacity:.3;filter:url(#filter4288)" id="path3461-3" d="M 180,46.085938 C 106.04162,46.085938 46.085938,106.04162 46.085938,180 46.085938,253.95838 106.04162,313.91406 180,313.91406 253.95838,313.91406 313.91406,253.95838 313.91406,180 313.91406,106.04162 253.95838,46.085938 180,46.085938 Z m 0.0469,11.125 -0.0469,0.0293 c 56.22444,0 103.63057,37.781295 118.16016,89.337886 -12.48263,25.82615 -30.32303,49.06976 -51.98828,67.875 -10.4261,9.02001 -21.80824,17.06591 -34.37696,22.72852 -12.56871,5.66262 -26.39989,8.87615 -40.17383,8.0918 -10.33045,-0.60261 -20.56612,-3.48235 -29.5957,-8.51367 24.00874,-13.00872 45.65453,-30.34111 63.37891,-51.09766 11.66958,-13.63046 21.80873,-29.12608 25.73047,-46.61133 1.98957,-8.74261 2.2959,-17.88708 0.47851,-26.66797 -1.8174,-8.78088 -5.87279,-17.121442 -12.01367,-23.66406 C 213.6022,82.348305 205.73144,77.81479 197.29492,75.5 c -8.41741,-2.324351 -17.40886,-2.506198 -26.01758,-0.9375 -17.21741,3.156531 -32.61922,13.162661 -44.92968,25.58789 -21.74177,21.90438 -35.180727,52.81829 -32.712894,83.58008 1.243475,15.38089 6.389834,30.49343 15.208984,43.13867 1.98,2.83131 4.15201,5.5201 6.4668,8.06445 -12.86524,4.52436 -26.208342,7.72734 -39.695316,9.53516 C 64.012606,225.7209 57.306641,203.62553 57.306641,179.9707 c 0,-67.81749 54.941859,-122.759763 122.740239,-122.759762 z m 0.72851,24.763671 -0.01,0.03906 c 8.64698,0 17.33178,2.621129 24.21876,7.84375 6.19827,4.686971 10.80801,11.325378 13.39062,18.652348 2.61132,7.32696 3.28215,15.27518 2.39258,23.0039 -1.76957,15.44784 -9.56633,29.61478 -18.97852,41.99219 -16.6722,21.90438 -38.83457,39.43701 -63.47461,51.71875 -2.51567,1.24349 -5.06973,2.44787 -7.65234,3.5957 -5.35654,-4.68697 -9.94679,-10.23377 -13.4668,-16.45117 -7.3174,-12.97045 -9.72835,-28.36118 -8.32226,-43.17773 1.43479,-14.82611 6.5046,-29.09746 13.34375,-42.32618 7.92002,-15.33307 18.71896,-29.842909 33.83203,-38.193355 7.55654,-4.180008 16.09871,-6.697266 24.72656,-6.697266 z M 301.65625,163.5918 c 0.71209,5.35583 1.09375,10.814 1.09375,16.36914 0,67.79837 -54.92234,122.76172 -122.7207,122.76172 -38.06964,0 -72.12327,-17.33379 -94.601566,-44.54688 13.888725,-3.15652 27.472146,-7.69896 40.499996,-13.4668 5.71044,4.32349 11.99575,7.88183 18.69141,10.44532 19.25482,7.38435 41.1291,6.31185 60.62305,-0.43164 19.48437,-6.75305 36.77851,-18.84246 51.84375,-32.95118 17.93345,-16.75826 33.05865,-36.51485 44.57031,-58.17968 z" transform="translate(0,2.000002)"/><path style="fill:#fff" id="path3461" d="M 180,46.085938 C 106.04162,46.085938 46.085938,106.04162 46.085938,180 46.085938,253.95838 106.04162,313.91406 180,313.91406 253.95838,313.91406 313.91406,253.95838 313.91406,180 313.91406,106.04162 253.95838,46.085938 180,46.085938 Z m 0.0469,11.125 -0.0469,0.0293 c 56.22444,0 103.63057,37.781295 118.16016,89.337886 -12.48263,25.82615 -30.32303,49.06976 -51.98828,67.875 -10.4261,9.02001 -21.80824,17.06591 -34.37696,22.72852 -12.56871,5.66262 -26.39989,8.87615 -40.17383,8.0918 -10.33045,-0.60261 -20.56612,-3.48235 -29.5957,-8.51367 24.00874,-13.00872 45.65453,-30.34111 63.37891,-51.09766 11.66958,-13.63046 21.80873,-29.12608 25.73047,-46.61133 1.98957,-8.74261 2.2959,-17.88708 0.47851,-26.66797 -1.8174,-8.78088 -5.87279,-17.121442 -12.01367,-23.66406 C 213.6022,82.348305 205.73144,77.81479 197.29492,75.5 c -8.41741,-2.324351 -17.40886,-2.506198 -26.01758,-0.9375 -17.21741,3.156531 -32.61922,13.162661 -44.92968,25.58789 -21.74177,21.90438 -35.180727,52.81829 -32.712894,83.58008 1.243475,15.38089 6.389834,30.49343 15.208984,43.13867 1.98,2.83131 4.15201,5.5201 6.4668,8.06445 -12.86524,4.52436 -26.208342,7.72734 -39.695316,9.53516 C 64.012606,225.7209 57.306641,203.62553 57.306641,179.9707 c 0,-67.81749 54.941859,-122.759763 122.740239,-122.759762 z m 0.72851,24.763671 -0.01,0.03906 c 8.64698,0 17.33178,2.621129 24.21876,7.84375 6.19827,4.686971 10.80801,11.325378 13.39062,18.652348 2.61132,7.32696 3.28215,15.27518 2.39258,23.0039 -1.76957,15.44784 -9.56633,29.61478 -18.97852,41.99219 -16.6722,21.90438 -38.83457,39.43701 -63.47461,51.71875 -2.51567,1.24349 -5.06973,2.44787 -7.65234,3.5957 -5.35654,-4.68697 -9.94679,-10.23377 -13.4668,-16.45117 -7.3174,-12.97045 -9.72835,-28.36118 -8.32226,-43.17773 1.43479,-14.82611 6.5046,-29.09746 13.34375,-42.32618 7.92002,-15.33307 18.71896,-29.842909 33.83203,-38.193355 7.55654,-4.180008 16.09871,-6.697266 24.72656,-6.697266 z M 301.65625,163.5918 c 0.71209,5.35583 1.09375,10.814 1.09375,16.36914 0,67.79837 -54.92234,122.76172 -122.7207,122.76172 -38.06964,0 -72.12327,-17.33379 -94.601566,-44.54688 13.888725,-3.15652 27.472146,-7.69896 40.499996,-13.4668 5.71044,4.32349 11.99575,7.88183 18.69141,10.44532 19.25482,7.38435 41.1291,6.31185 60.62305,-0.43164 19.48437,-6.75305 36.77851,-18.84246 51.84375,-32.95118 17.93345,-16.75826 33.05865,-36.51485 44.57031,-58.17968 z"/></svg>